<svg width="2104" height="684" viewBox="0 0 2104 684" fill="none" xmlns="http://www.w3.org/2000/svg">
<path d="M912.106 671.936H740.426L847.724 12.5225H1019.42L912.106 671.936ZM595.999 12.5225L432.327 466.072L412.959 368.405L412.977 368.441L355.21 71.8952C355.21 71.8952 348.225 12.5225 273.771 12.5225H3.1896L0.0145874 23.688C0.0145874 23.688 82.7588 40.9035 179.596 99.0591L328.751 671.954H507.628L780.766 12.5225H595.999V12.5225ZM1946.35 671.936H2103.99L1966.54 12.5049H1828.54C1764.81 12.5049 1749.28 61.6469 1749.28 61.6469L1493.24 671.936H1672.2L1707.99 573.987H1926.24L1946.35 671.936ZM1757.43 438.679L1847.64 191.91L1898.39 438.679H1757.43ZM1506.66 171.096L1531.16 29.4911C1531.16 29.4911 1455.56 0.739746 1376.75 0.739746C1291.55 0.739746 1089.24 37.9755 1089.24 219.039C1089.24 389.396 1326.69 391.512 1326.69 480.995C1326.69 570.477 1113.7 554.443 1043.41 498.016L1017.89 646.077C1017.89 646.077 1094.55 683.313 1211.67 683.313C1328.83 683.313 1505.57 622.653 1505.57 457.553C1505.57 286.102 1265.98 270.139 1265.98 195.597C1266 121.037 1433.19 130.615 1506.66 171.096V171.096Z" fill="white"/>
<path d="M412.977 368.423L355.21 71.8775C355.21 71.8775 348.225 12.5049 273.771 12.5049H3.1896L0.0145874 23.6704C0.0145874 23.6704 130.066 50.6226 254.809 151.605C374.083 248.126 412.977 368.423 412.977 368.423Z" fill="white"/>
</svg>
